<?xml version="1.0" encoding="UTF-8"?>
<svg id="Camada_2" data-name="Camada 2" xmlns="http://www.w3.org/2000/svg" viewBox="0 0 374.54 164.29">
  <defs>
    <style>
      .cls-1 {
        fill: #042029;
      }
    </style>
  </defs>
  <g id="Camada_1-2" data-name="Camada 1">
    <g>
      <g>
        <path class="cls-1" d="M.02,11.53v-1.35h20.09v1.35H.02ZM.02,50.79v-1.35h22.78c1.8,0,3.31-.52,4.55-1.56,1.24-1.04,2.2-2.42,2.88-4.15.68-1.72,1.04-3.59,1.08-5.6h1.89v12.66H.02ZM6.38,49.98V10.18h7.22v39.8h-7.22Z"/>
        <path class="cls-1" d="M54.1,51.43c-2.87,0-5.38-.4-7.51-1.21-2.14-.81-3.79-2.04-4.95-3.69-1.17-1.65-1.75-3.73-1.75-6.25V11.53h-6.3v-1.35h18.63v1.35h-5.12v28.71c0,3.34.77,5.73,2.32,7.16,1.54,1.44,3.66,2.15,6.36,2.15,2.87,0,5.15-.77,6.84-2.32,1.69-1.54,2.53-3.88,2.53-7V11.53h-5.65v-1.35h13.09v1.35h-5.65v28.71c0,3.84-1.07,6.67-3.21,8.48-2.14,1.81-5.34,2.72-9.61,2.72ZM49.52,6.25c-.86,0-1.6-.3-2.21-.92-.61-.61-.92-1.35-.92-2.21s.3-1.6.92-2.21c.61-.61,1.35-.92,2.21-.92s1.61.31,2.23.92c.63.61.94,1.35.94,2.21s-.31,1.6-.94,2.21c-.63.61-1.37.92-2.23.92ZM60.4,6.25c-.86,0-1.61-.3-2.23-.92-.63-.61-.94-1.35-.94-2.21s.31-1.6.94-2.21c.63-.61,1.37-.92,2.23-.92s1.6.31,2.21.92c.61.61.92,1.35.92,2.21s-.31,1.6-.92,2.21c-.61.61-1.35.92-2.21.92Z"/>
        <path class="cls-1" d="M81.56,50.79v-1.35h7V11.53h-4.09c-1.69.07-3.12.67-4.31,1.8s-2.1,2.58-2.75,4.34c-.65,1.76-.99,3.66-1.02,5.71h-1.88v-13.2h34.9v13.2h-1.89c-.04-2.12-.4-4.07-1.08-5.87-.68-1.8-1.64-3.24-2.88-4.34-1.24-1.09-2.76-1.64-4.55-1.64h-3.23v37.92h7v1.35h-21.22Z"/>
        <path class="cls-1" d="M119.53,50.79v-1.35h7V11.53h-4.09c-1.69.07-3.12.67-4.31,1.8s-2.1,2.58-2.75,4.34c-.65,1.76-.99,3.66-1.02,5.71h-1.88v-13.2h34.9v13.2h-1.89c-.04-2.12-.4-4.07-1.08-5.87-.68-1.8-1.64-3.24-2.88-4.34-1.24-1.09-2.76-1.64-4.55-1.64h-3.23v37.92h7v1.35h-21.22Z"/>
        <path class="cls-1" d="M152.92,56.6c-1.98,0-3.55-.54-4.71-1.62-1.17-1.08-1.75-2.39-1.75-3.93,0-1.33.38-2.33,1.13-3.02.75-.68,1.6-1.02,2.53-1.02s1.78.33,2.42,1c.65.67.97,1.46.97,2.4,0,.75-.16,1.37-.48,1.86s-.49.98-.49,1.48c0,.36.13.63.38.81.25.18.56.27.92.27.65,0,1.25-.31,1.8-.92.56-.61,1-1.7,1.35-3.26.34-1.56.51-3.76.51-6.6V10.18h7.22v33.88c0,1.69-.32,3.29-.97,4.79s-1.53,2.85-2.64,4.01c-1.11,1.17-2.38,2.08-3.8,2.75-1.42.66-2.88,1-4.39,1ZM150.5,11.53v-1.35h19.07v1.35h-19.07Z"/>
        <path class="cls-1" d="M193.85,51.43c-2.62,0-5.06-.56-7.32-1.67s-4.25-2.65-5.95-4.6c-1.71-1.96-3.03-4.19-3.99-6.71-.95-2.51-1.43-5.17-1.43-7.97s.48-5.46,1.43-7.97c.95-2.51,2.28-4.75,3.99-6.71,1.7-1.96,3.69-3.49,5.95-4.6,2.26-1.11,4.7-1.67,7.32-1.67s5.06.56,7.32,1.67c2.26,1.11,4.25,2.65,5.95,4.6,1.71,1.96,3.03,4.19,3.99,6.71.95,2.51,1.43,5.17,1.43,7.97s-.48,5.46-1.43,7.97c-.95,2.51-2.28,4.75-3.99,6.71-1.71,1.96-3.69,3.49-5.95,4.6s-4.7,1.67-7.32,1.67ZM193.85,49.82c1.83,0,3.38-.3,4.66-.89s2.32-1.61,3.12-3.04c.81-1.44,1.39-3.41,1.75-5.92.36-2.51.54-5.69.54-9.53s-.18-7.02-.54-9.53c-.36-2.51-.94-4.48-1.75-5.9-.81-1.42-1.85-2.41-3.12-2.99-1.27-.57-2.83-.86-4.66-.86s-3.39.29-4.66.86c-1.28.57-2.32,1.58-3.12,3.02-.81,1.44-1.39,3.41-1.75,5.92-.36,2.51-.54,5.69-.54,9.53s.18,7.02.54,9.53c.36,2.51.94,4.49,1.75,5.92.81,1.44,1.85,2.44,3.12,3.02,1.27.57,2.83.86,4.66.86Z"/>
        <path class="cls-1" d="M215.61,50.79v-1.35h5.92V11.53h-5.92v-1.35h19.07v1.35h-5.92v17.72h15.51V11.53h-5.92v-1.35h19.07v1.35h-5.92v37.92h5.92v1.35h-19.07v-1.35h5.92v-18.85h-15.51v18.85h5.92v1.35h-19.07Z"/>
        <path class="cls-1" d="M257.19,50.79v-1.35h12.93v1.35h-12.93ZM261.82,49.98l14.06-40.45h1.62l-3.29,9.26-10.61,31.18h-1.78ZM267.69,38.08v-1.35h17.45v1.35h-17.45ZM283.8,49.98l-9.91-29.62h-.22l-.38-1.56,2.59-9.26h1.62l13.52,40.45h-7.22ZM277.33,50.79v-1.35h18.47v1.35h-18.47Z"/>
        <path class="cls-1" d="M327.42,51.43l-23.48-37.43h-.22v35.44h5.92v1.35h-13.95v-1.35h5.92V11.53h-5.92v-1.35h14.59l16.48,26.17h.22V11.53h-5.39v-1.35h12.87v1.35h-5.39v39.91h-1.67Z"/>
        <path class="cls-1" d="M367.49,51.43l-23.48-37.43h-.22v35.44h5.92v1.35h-13.95v-1.35h5.92V11.53h-5.92v-1.35h14.59l16.48,26.17h.22V11.53h-5.39v-1.35h12.87v1.35h-5.39v39.91h-1.67Z"/>
        <path class="cls-1" d="M13.92,116.12c-2.87,0-5.32-.48-7.35-1.45-2.03-.97-3.56-2.28-4.6-3.93-1.04-1.65-1.56-3.48-1.56-5.49,0-2.3.61-4.34,1.83-6.14,1.22-1.8,2.83-3.37,4.82-4.74,1.99-1.36,4.14-2.55,6.44-3.55l1.13,1.45c-2.69.93-4.52,2.19-5.49,3.77-.97,1.58-1.45,3.38-1.45,5.39,0,1.69.25,3.27.75,4.74.5,1.47,1.2,2.76,2.1,3.85.9,1.1,1.93,1.95,3.1,2.56,1.17.61,2.41.92,3.74.92,1.26,0,2.56-.34,3.9-1.02,1.35-.68,2.88-1.89,4.61-3.61l1.18,1.18c-2.19,2.33-4.35,3.93-6.46,4.79-2.12.86-4.35,1.29-6.68,1.29ZM28.14,115.42l-15.94-25.04c-.68-1.08-1.38-2.19-2.1-3.34-.72-1.15-1.08-2.57-1.08-4.25,0-1.54.39-2.97,1.16-4.28.77-1.31,1.94-2.37,3.5-3.18,1.56-.81,3.51-1.21,5.84-1.21,1.97,0,3.7.3,5.17.89,1.47.59,2.63,1.42,3.47,2.48.84,1.06,1.27,2.29,1.27,3.69,0,.9-.25,1.89-.75,2.96-.5,1.08-1.45,2.15-2.83,3.23-1.38,1.08-3.37,2.06-5.95,2.96l-1.51-1.35c1.62-.18,2.94-1,3.96-2.48,1.02-1.47,1.54-3.25,1.54-5.33,0-1.76-.4-3.11-1.18-4.04-.79-.93-1.92-1.4-3.39-1.4s-2.67.42-3.47,1.27c-.81.84-1.21,1.86-1.21,3.04,0,.93.23,1.85.7,2.75.47.9.99,1.8,1.56,2.69l19.55,29.94h-8.29ZM27.87,90.91v-1.35h14.06v1.35h-14.06ZM30.51,106.8l-1.24-1.51c1.04-1.22,1.94-2.67,2.69-4.34s1.33-3.43,1.72-5.28c.39-1.85.59-3.6.59-5.25h1.83c0,1.76-.26,3.66-.78,5.71-.52,2.05-1.2,4.01-2.05,5.9-.84,1.89-1.77,3.47-2.77,4.77ZM30.29,115.42v-1.35h10.29v1.35h-10.29Z"/>
        <path class="cls-1" d="M79.84,116.06c-1.94,0-3.6-.27-4.98-.81-1.38-.54-2.74-1.33-4.07-2.37l-1.94,2.53h-1.35v-11.31h1.4c.43,1.72,1.09,3.37,1.99,4.93.9,1.56,2.11,2.85,3.64,3.85,1.53,1.01,3.44,1.51,5.74,1.51,2.05,0,3.74-.39,5.09-1.16,1.35-.77,2.35-1.76,3.02-2.96.66-1.2,1-2.45,1-3.74,0-1.15-.24-2.15-.73-3.02-.49-.86-1.19-1.61-2.13-2.24-.93-.63-2.03-1.18-3.29-1.64-1.26-.47-2.68-.88-4.25-1.24-2.59-.61-4.69-1.47-6.33-2.59-1.63-1.11-2.85-2.47-3.64-4.07-.79-1.6-1.18-3.46-1.18-5.57,0-2.62.57-4.82,1.72-6.6,1.15-1.78,2.66-3.12,4.52-4.04,1.87-.92,3.86-1.37,5.98-1.37,1.72,0,3.22.24,4.5.73,1.27.48,2.58,1.25,3.9,2.29l1.4-2.37h1.35v10.99l-1.35.05c-.86-3.41-2.14-5.94-3.82-7.59-1.69-1.65-3.75-2.48-6.19-2.48-1.47,0-2.85.31-4.12.92-1.28.61-2.29,1.43-3.04,2.45s-1.13,2.2-1.13,3.53c0,1.11.23,2.04.7,2.77.47.74,1.13,1.36,1.99,1.86.86.5,1.88.93,3.04,1.29,1.17.36,2.45.74,3.85,1.13,2.59.68,4.74,1.57,6.46,2.67,1.72,1.1,3.02,2.5,3.9,4.2.88,1.71,1.32,3.82,1.32,6.33,0,4.06-1.12,7.26-3.37,9.61-2.24,2.35-5.45,3.53-9.61,3.53Z"/>
        <path class="cls-1" d="M116.57,116.06c-2.62,0-5.06-.56-7.32-1.67s-4.25-2.65-5.95-4.6c-1.71-1.96-3.03-4.19-3.99-6.71-.95-2.51-1.43-5.17-1.43-7.97s.48-5.46,1.43-7.97c.95-2.51,2.28-4.75,3.99-6.71,1.7-1.96,3.69-3.49,5.95-4.6,2.26-1.11,4.7-1.67,7.32-1.67s5.06.56,7.32,1.67c2.26,1.11,4.25,2.65,5.95,4.6,1.71,1.96,3.03,4.19,3.99,6.71.95,2.51,1.43,5.17,1.43,7.97s-.48,5.46-1.43,7.97c-.95,2.51-2.28,4.75-3.99,6.71-1.71,1.96-3.69,3.49-5.95,4.6s-4.7,1.67-7.32,1.67ZM116.57,114.45c1.83,0,3.38-.3,4.66-.89s2.32-1.61,3.12-3.04c.81-1.44,1.39-3.41,1.75-5.92.36-2.51.54-5.69.54-9.53s-.18-7.02-.54-9.53c-.36-2.51-.94-4.48-1.75-5.9-.81-1.42-1.85-2.41-3.12-2.99-1.27-.57-2.83-.86-4.66-.86s-3.39.29-4.66.86c-1.28.57-2.32,1.58-3.12,3.02-.81,1.44-1.39,3.41-1.75,5.92-.36,2.51-.54,5.69-.54,9.53s.18,7.02.54,9.53c.36,2.51.94,4.49,1.75,5.92.81,1.44,1.85,2.44,3.12,3.02,1.27.57,2.83.86,4.66.86Z"/>
        <path class="cls-1" d="M133.97,115.42v-1.35h12.93v1.35h-12.93ZM138.6,114.61l14.06-40.45h1.62l-3.29,9.26-10.61,31.18h-1.78ZM144.47,102.71v-1.35h17.45v1.35h-17.45ZM160.57,114.61l-9.91-29.62h-.22l-.38-1.56,2.59-9.26h1.62l13.52,40.45h-7.22ZM154.11,115.42v-1.35h18.47v1.35h-18.47Z"/>
        <path class="cls-1" d="M183.95,94.57v-1.62h4.47c2.15,0,3.9-.23,5.25-.7,1.35-.47,2.33-1.35,2.96-2.67.63-1.31.94-3.2.94-5.68,0-2.19-.23-3.83-.7-4.93-.47-1.09-1.18-1.84-2.13-2.23-.95-.39-2.16-.59-3.64-.59h-18.63v-1.35h20.79c2.33,0,4.46.37,6.38,1.1,1.92.74,3.45,1.79,4.58,3.15,1.13,1.36,1.7,3.03,1.7,5.01,0,2.08-.7,3.91-2.1,5.49-1.4,1.58-3.4,2.81-6.01,3.69-2.6.88-5.74,1.32-9.4,1.32h-4.47ZM172.47,115.42v-1.35h20.14v1.35h-20.14ZM178.4,114.61v-39.8h7.22v39.8h-7.22ZM205.92,115.42c-1.76,0-3.35-.34-4.77-1.02-1.42-.68-2.54-1.64-3.37-2.88-.83-1.24-1.28-2.68-1.35-4.34l-.16-4.25c-.11-2.84-.84-4.94-2.21-6.3-1.36-1.36-3.11-2.05-5.22-2.05l4.09-.59h1.99v.22c1.54.36,3.02,1.06,4.44,2.1,1.42,1.04,2.59,2.3,3.53,3.77.93,1.47,1.4,3.07,1.4,4.79v2.8c0,2.48.27,4.17.81,5.06.54.9,1.51,1.35,2.91,1.35h2.05v1.35h-4.15Z"/>
        <path class="cls-1" d="M239.9,85.85c-.04-1.76-.4-3.37-1.08-4.82-.68-1.45-1.64-2.63-2.88-3.53-1.24-.9-2.76-1.35-4.55-1.35h-21.97v-1.35h32.37v11.04h-1.89ZM209.42,115.42v-1.35h23.59c1.8,0,3.31-.52,4.55-1.56,1.24-1.04,2.2-2.42,2.88-4.15.68-1.72,1.04-3.59,1.08-5.6h1.89v12.66h-33.98ZM215.77,114.61v-39.26h7.22v39.26h-7.22ZM231.34,103.78c-.04-2.01-.31-3.59-.81-4.74-.5-1.15-1.36-1.97-2.56-2.45-1.2-.48-2.92-.73-5.14-.73v-1.35c2.23,0,3.96-.22,5.2-.65,1.24-.43,2.1-1.18,2.59-2.26.49-1.08.73-2.59.73-4.52h1.88v16.7h-1.88Z"/>
        <path class="cls-1" d="M261.88,116.06c-1.94,0-3.6-.27-4.98-.81-1.38-.54-2.74-1.33-4.07-2.37l-1.94,2.53h-1.35v-11.31h1.4c.43,1.72,1.09,3.37,1.99,4.93.9,1.56,2.11,2.85,3.64,3.85,1.53,1.01,3.44,1.51,5.74,1.51,2.05,0,3.74-.39,5.09-1.16,1.35-.77,2.35-1.76,3.02-2.96.66-1.2,1-2.45,1-3.74,0-1.15-.24-2.15-.73-3.02-.49-.86-1.19-1.61-2.13-2.24-.93-.63-2.03-1.18-3.29-1.64-1.26-.47-2.68-.88-4.25-1.24-2.59-.61-4.69-1.47-6.33-2.59-1.63-1.11-2.85-2.47-3.64-4.07-.79-1.6-1.18-3.46-1.18-5.57,0-2.62.57-4.82,1.72-6.6,1.15-1.78,2.66-3.12,4.52-4.04,1.87-.92,3.86-1.37,5.98-1.37,1.72,0,3.22.24,4.5.73,1.27.48,2.58,1.25,3.9,2.29l1.4-2.37h1.35v10.99l-1.35.05c-.86-3.41-2.14-5.94-3.82-7.59-1.69-1.65-3.75-2.48-6.19-2.48-1.47,0-2.85.31-4.12.92-1.28.61-2.29,1.43-3.04,2.45s-1.13,2.2-1.13,3.53c0,1.11.23,2.04.7,2.77.47.74,1.13,1.36,1.99,1.86.86.5,1.88.93,3.04,1.29,1.17.36,2.45.74,3.85,1.13,2.59.68,4.74,1.57,6.46,2.67,1.72,1.1,3.02,2.5,3.9,4.2.88,1.71,1.32,3.82,1.32,6.33,0,4.06-1.12,7.26-3.37,9.61-2.24,2.35-5.45,3.53-9.61,3.53Z"/>
      </g>
      <g>
        <path class="cls-1" d="M16.06,158.13H5.21c-.71,1.86-1.45,3.89-2.2,5.75H0l9.5-24.24h2.47l9.33,24.24h-3.08l-2.16-5.75ZM6.19,155.53h8.89l-4.46-11.39-4.43,11.39Z"/>
        <path class="cls-1" d="M48.03,163.88h-8.65v-24.13h9.06c5.14,0,10.75,4.06,10.75,12.1s-5.88,12.03-11.16,12.03ZM47.93,142.31h-5.58v18.96h5.51c3.92,0,8.48-3.14,8.48-9.4s-4.09-9.57-8.42-9.57Z"/>
        <path class="cls-1" d="M84.88,163.91l-9.36-23.9v-.3h2.97l7.67,19.84,7.5-19.84h2.91v.3l-9.23,23.9h-2.47Z"/>
        <path class="cls-1" d="M125.2,164.29c-6.29,0-12.07-5.07-12.07-12.51s5.78-12.54,12.07-12.54,12.1,5.17,12.1,12.57-5.78,12.47-12.1,12.47ZM125.2,141.98c-5.24,0-9.19,4.39-9.19,9.84s3.95,9.73,9.19,9.73,9.19-4.33,9.19-9.73-3.92-9.84-9.19-9.84Z"/>
        <path class="cls-1" d="M166.61,164.29c-5.24,0-11.66-4.36-11.66-12.54,0-7.61,5.95-12.51,11.53-12.51,4.16,0,7.17,1.66,9.67,3.92l-1.49,2.33c-2.26-1.99-4.73-3.48-8.08-3.48-4.29,0-8.62,3.82-8.62,9.77s4.56,9.8,8.69,9.8c3.58,0,6.25-1.83,8.21-3.62l1.62,2.06v.07c-1.79,1.93-5.14,4.19-9.87,4.19Z"/>
        <path class="cls-1" d="M208.89,158.13h-10.85c-.71,1.86-1.45,3.89-2.2,5.75h-3.01l9.5-24.24h2.47l9.33,24.24h-3.08l-2.16-5.75ZM199.02,155.53h8.89l-4.46-11.39-4.43,11.39Z"/>
        <path class="cls-1" d="M241.68,164.29c-5.24,0-11.66-4.36-11.66-12.54,0-7.61,5.95-12.51,11.53-12.51,4.16,0,7.17,1.66,9.67,3.92l-1.49,2.33c-2.26-1.99-4.73-3.48-8.08-3.48-4.29,0-8.62,3.82-8.62,9.77s4.56,9.8,8.69,9.8c3.58,0,6.25-1.83,8.21-3.62l1.62,2.06v.07c-1.79,1.93-5.14,4.19-9.87,4.19Z"/>
        <path class="cls-1" d="M271.73,139.71h2.97v24.17h-2.97v-24.17Z"/>
        <path class="cls-1" d="M309.92,158.13h-10.85c-.71,1.86-1.45,3.89-2.2,5.75h-3.01l9.5-24.24h2.47l9.33,24.24h-3.08l-2.16-5.75ZM300.05,155.53h8.89l-4.46-11.39-4.43,11.39Z"/>
      </g>
    </g>
  </g>
</svg>